<svg width="100%" height="100%" viewBox="0 0 30 23" fill="none" xmlns="http://www.w3.org/2000/svg">
<path d="M1.30735 0.987719C1.04213 1.05114 0.80574 1.19528 0.603943 1.40861C0.21188 1.8122 0.240708 1.18952 0.240708 10.0916C0.240708 18.8957 0.217646 18.3365 0.569349 18.7516C0.655833 18.8554 0.85763 18.9995 1.01907 19.0745L1.30735 19.2129H12.4696L12.435 19.3974C12.4177 19.5011 12.3658 19.7664 12.3312 19.9912L12.2563 20.3948L10.1518 20.4236C8.13385 20.4525 8.0416 20.4582 7.81674 20.5793C7.4881 20.758 7.19405 21.104 7.04415 21.496C6.85388 21.9919 6.84235 22.2571 6.98649 22.4877C7.22288 22.8683 6.74434 22.8452 15.0007 22.8452C23.2571 22.8452 22.7785 22.8683 23.0149 22.4877C23.3147 22.0092 22.842 20.931 22.1847 20.5793C21.9714 20.464 21.8445 20.4525 20.8989 20.4352L20.0616 20.4168C19.9262 20.4138 19.7954 20.4663 19.6997 20.562C19.5094 20.7523 19.5094 21.0175 19.6997 21.202C19.8381 21.3404 19.8554 21.3461 20.7721 21.3461H21.5028C21.6326 21.3461 21.7605 21.3774 21.8756 21.4374L21.9771 21.4903C22.3922 21.9054 22.8881 21.9227 15.0007 21.9227C7.11333 21.9227 7.6899 21.9573 8.10502 21.5422L8.30105 21.3461H17.9778C18.1054 21.3461 18.2275 21.2941 18.3159 21.202C18.6158 20.908 18.437 20.4871 17.9988 20.4294L17.7451 20.3948L17.6471 19.8471C17.5895 19.5473 17.5434 19.282 17.5434 19.2532C17.5376 19.2302 20.0456 19.2129 23.1187 19.2129H28.6941L28.9824 19.0745C29.2937 18.9303 29.5589 18.6651 29.6858 18.3653C29.7492 18.2096 29.7607 16.7452 29.7607 10.1032C29.7607 1.18952 29.7895 1.8122 29.3975 1.40861C29.2937 1.29906 29.1092 1.16069 28.9824 1.0915L28.7517 0.964657L15.116 0.953125C7.61494 0.953125 1.40536 0.964657 1.30735 0.987719ZM28.7056 2.04859L28.867 2.20427L28.8843 9.86102C28.8959 14.0699 28.8843 17.6273 28.867 17.7657C28.844 17.9156 28.7748 18.0713 28.6941 18.152L28.5557 18.2904H1.44572L1.30735 18.152C1.22663 18.0713 1.15744 17.9156 1.13438 17.7657C1.11708 17.6273 1.10555 14.0699 1.11708 9.86678C1.13438 2.30805 1.13438 2.2158 1.24969 2.08895C1.31311 2.01977 1.4169 1.93905 1.48032 1.91022C1.54374 1.88716 7.66107 1.86986 15.0699 1.87562L28.5499 1.88716L28.7056 2.04859ZM16.667 19.5703C16.7016 19.7721 16.7419 20.0431 16.765 20.1757L16.8054 20.4236H13.1961L13.2364 20.1757C13.2595 20.0431 13.2999 19.7721 13.3344 19.5703L13.3979 19.2129H16.6036L16.667 19.5703Z" fill="white"/>
<path d="M6.29459 4.21021C4.415 4.76948 4.34581 4.79254 4.22473 4.94821C4.06906 5.14424 4.06329 5.54207 4.20743 5.70927C4.25933 5.77846 4.83589 6.23394 5.4874 6.72979C6.13892 7.22563 6.67512 7.65229 6.68665 7.67535C6.69818 7.70418 6.6117 7.74454 6.50215 7.76183C6.38684 7.7849 6.0582 7.92327 5.76415 8.06741C5.3202 8.28651 5.1357 8.42488 4.70904 8.8573C4.28239 9.28396 4.13825 9.47423 3.94222 9.87205C3.59051 10.5928 3.49826 10.9848 3.49826 11.8035C3.49826 12.3513 3.52709 12.5761 3.62511 12.899C3.96528 13.9829 4.93967 14.8536 6.20811 15.2053C6.75008 15.3552 8.17418 15.3898 8.87183 15.2629C9.47722 15.1534 10.4401 14.8536 10.7399 14.6806C11.0974 14.473 11.0858 13.9945 10.7226 13.8446C10.5727 13.7811 10.5093 13.7869 10.2786 13.8734C9.15434 14.3116 8.56048 14.4384 7.67834 14.4442C6.60017 14.4442 5.79298 14.179 5.18759 13.6255C3.58475 12.161 4.57067 9.2436 6.87115 8.63244C7.21133 8.54019 7.8859 8.51713 7.93203 8.59208C7.94933 8.62091 7.81095 8.7074 7.62645 8.79388C5.6892 9.68179 5.63731 12.5415 7.53997 13.4871C9.11975 14.2655 10.9763 13.1585 11.0685 11.3884L11.0916 10.9099L11.2473 10.956C11.328 10.9791 11.6163 10.9963 11.8872 10.9963C12.5734 10.9906 12.9424 10.8176 13.5189 10.2238C14.009 9.72215 14.0897 9.51458 13.9456 9.16288C13.8245 8.88037 13.6112 8.75929 13.1499 8.71316C12.706 8.66127 12.3485 8.5229 12.0775 8.29227C11.9737 8.20579 11.3683 7.40437 10.7284 6.51069C10.0884 5.61702 9.44262 4.75794 9.29848 4.60804C9.14281 4.4466 8.87759 4.25633 8.6585 4.14679C8.34139 3.99688 8.20878 3.96805 7.76483 3.95076C7.28628 3.93346 7.17673 3.95076 6.29459 4.21021ZM8.0877 4.91938C8.20878 4.95974 8.39904 5.06352 8.50859 5.15577C8.61814 5.24802 9.23506 6.05521 9.87504 6.94888C10.515 7.84255 11.1608 8.70163 11.3049 8.85154C11.5932 9.15135 12.2332 9.50882 12.5907 9.56647L12.8155 9.60107L12.6598 9.76251C12.3254 10.1084 11.6451 10.2007 11.2588 9.95277C11.1377 9.87205 5.56812 5.62279 5.41822 5.49018C5.34903 5.43252 7.3324 4.86749 7.61492 4.86173C7.75329 4.85596 7.96662 4.88479 8.0877 4.91938ZM9.42533 9.75674C9.72514 9.94701 10.0077 10.3448 10.1057 10.7081C10.1806 10.9733 10.146 11.694 10.0538 11.7862C10.0134 11.8266 9.92694 11.7978 9.77703 11.6998C9.66172 11.619 9.44262 11.521 9.29848 11.4807C9.03326 11.4172 9.03326 11.4115 9.05056 11.1981C9.06786 11.0425 9.0448 10.9502 8.96408 10.8753C8.86606 10.7715 8.86606 10.76 8.9929 10.5063C9.09669 10.3045 9.12551 10.1719 9.10822 9.91241C9.09669 9.73368 9.10245 9.58377 9.12551 9.58377C9.14281 9.58377 9.27542 9.65872 9.42533 9.75674ZM8.105 9.77404C8.31833 9.92971 8.09347 10.3275 7.86861 10.1834C7.68411 10.0681 7.64375 9.94701 7.75906 9.82016C7.8859 9.68179 7.96086 9.67026 8.105 9.77404ZM7.41312 10.9963C7.56879 11.0771 7.79942 11.1405 7.9205 11.1405C8.04158 11.1405 8.13959 11.1636 8.13959 11.1924C8.13959 11.2212 8.15689 11.2846 8.17419 11.3308C8.19725 11.3942 8.15112 11.4288 8.01275 11.4576C7.90897 11.4807 7.69564 11.5671 7.5342 11.6536C7.37853 11.7344 7.22862 11.8093 7.21133 11.8208C7.11331 11.867 6.99223 10.9791 7.08448 10.8926C7.13061 10.8407 7.08448 10.8291 7.41312 10.9963ZM9.20623 12.4551C9.37344 12.5358 9.40226 12.5761 9.33884 12.6223C9.20047 12.726 8.87759 12.8125 8.59508 12.8125C8.27797 12.8125 7.83401 12.6569 7.86861 12.5588C7.88014 12.5242 8.01851 12.4493 8.17419 12.3916C8.50859 12.2706 8.90065 12.2936 9.20623 12.4551Z" fill="white"/>
<path d="M21.585 4.04881C21.1814 4.19295 20.9566 4.33709 20.6741 4.6369C20.38 4.94825 19.5555 6.09561 19.4748 6.3147C19.3999 6.51073 19.5152 6.75289 19.74 6.85667C20.0226 6.99504 20.184 6.87397 20.7433 6.08407C21.4582 5.08086 21.7465 4.856 22.3576 4.856C22.6171 4.856 24.6523 5.43832 24.5832 5.49022C24.4506 5.61129 18.8637 9.86632 18.7426 9.95281C18.3563 10.2007 17.6759 10.1085 17.3415 9.76254L17.1859 9.60111L17.405 9.56651C18.1545 9.43967 19.1519 8.60365 19.1519 8.10204C19.1519 7.84259 18.979 7.68115 18.6965 7.68115C18.5004 7.68115 18.4485 7.71575 18.1776 8.02132C17.8143 8.44798 17.4223 8.64978 16.863 8.70743C16.3902 8.75932 16.1769 8.8804 16.0558 9.16292C15.9117 9.51462 15.9924 9.72218 16.4825 10.2238C17.059 10.8177 17.428 10.9906 18.1141 10.9964C18.3851 10.9964 18.6734 10.9791 18.7541 10.956L18.9098 10.9099L18.9328 11.4C18.9559 11.8093 18.9905 11.9477 19.1692 12.3109C19.4402 12.8529 19.8438 13.268 20.3512 13.516C20.7144 13.6947 20.7721 13.7062 21.3717 13.7062C21.9656 13.7062 22.029 13.6947 22.3922 13.5217C23.1591 13.1585 23.6895 12.4436 23.8336 11.5787C24.0181 10.4602 23.4358 9.30706 22.4441 8.82851C22.225 8.72473 22.0578 8.61518 22.0693 8.59212C22.1155 8.51717 22.7901 8.54023 23.1302 8.63248C23.7183 8.78815 24.168 9.05337 24.6351 9.52615C26.0938 10.9964 25.8804 13.2162 24.2084 14.0464C23.6145 14.3405 23.1129 14.4442 22.323 14.4442C21.4409 14.4385 20.847 14.3116 19.7227 13.8734C19.4921 13.787 19.4287 13.7812 19.2788 13.8446C18.9213 13.9945 18.904 14.4731 19.2557 14.6749C19.5382 14.8421 20.3685 15.1073 21.0142 15.2399C21.5158 15.3437 21.7407 15.3552 22.5248 15.3321C23.5742 15.2975 23.8855 15.2341 24.6293 14.8767C25.0156 14.6922 25.2116 14.548 25.5576 14.2021C26.2783 13.4814 26.5723 12.6742 26.5146 11.6018C26.4743 10.9041 26.3647 10.489 26.0592 9.87209C25.8631 9.48003 25.7132 9.27823 25.2923 8.85734C24.8599 8.42492 24.6812 8.29231 24.2372 8.06745C23.9432 7.92331 23.6145 7.78493 23.4992 7.76187C23.3897 7.74457 23.3032 7.70422 23.3147 7.68115C23.3263 7.65232 23.8625 7.22567 24.514 6.72982C25.1655 6.23398 25.7421 5.7785 25.7997 5.70931C25.9381 5.54787 25.9323 5.14428 25.7824 4.95401C25.6498 4.78681 25.4653 4.72339 23.8336 4.25061C22.571 3.89314 22.1328 3.85278 21.585 4.04881ZM22.4787 9.99893C22.6978 10.2296 22.8881 10.6332 22.9342 10.9849C22.9688 11.2385 22.865 11.8555 22.7901 11.8209C22.7728 11.8093 22.6286 11.7344 22.4672 11.6537C22.3115 11.5672 22.0982 11.4807 21.9944 11.4634C21.8272 11.423 21.8099 11.4057 21.8445 11.2501C21.8676 11.1232 21.8445 11.031 21.7522 10.9099L21.6312 10.7427L21.7638 10.5236C21.856 10.3622 21.8906 10.2123 21.8906 9.95281V9.59534L22.0924 9.69912C22.202 9.75678 22.3749 9.88939 22.4787 9.99893ZM20.9162 9.8202C21.0315 9.94704 20.9912 10.0681 20.8067 10.1834C20.5818 10.3276 20.357 9.92975 20.5703 9.77407C20.7144 9.67029 20.7894 9.68182 20.9162 9.8202ZM20.2647 11.054C20.38 11.1002 20.5761 11.1405 20.7029 11.1405C20.8932 11.1405 20.9278 11.1636 20.9508 11.2789C20.9739 11.3942 20.9451 11.4173 20.7087 11.4807C20.5588 11.5211 20.3397 11.6191 20.2243 11.6998C20.0687 11.8036 19.988 11.8266 19.9418 11.7805C19.913 11.7517 19.8726 11.5038 19.8553 11.2443C19.8265 10.7773 19.8323 10.7658 19.9418 10.8638C19.9995 10.9214 20.1436 11.0022 20.2647 11.054ZM21.9425 12.432C22.0578 12.4782 22.1501 12.5416 22.1501 12.5704C22.1501 12.6684 21.7003 12.8126 21.4063 12.8126C21.1238 12.8126 20.8009 12.7261 20.6625 12.6223C20.5991 12.5762 20.6049 12.5473 20.6914 12.5012C21.0834 12.2821 21.5216 12.2533 21.9425 12.432Z" fill="white"/>
<path d="M14.5683 8.49996C14.4184 8.61528 14.4126 8.63834 14.453 8.94392C14.574 9.7684 14.4991 10.0279 13.9917 10.5641C13.8245 10.737 13.6688 10.9388 13.6458 11.0138C13.5535 11.3251 13.8937 11.6653 14.205 11.573C14.3838 11.5212 14.9084 11.0022 15.116 10.6794C15.4619 10.1432 15.5484 9.29562 15.3178 8.74212C15.1621 8.36159 14.8681 8.26357 14.5683 8.49996Z" fill="white"/>
<path d="M15.1794 12.7899C15.0237 12.9859 15.0295 13.0551 15.2082 13.6893C15.3927 14.3293 15.3697 14.583 15.0872 15.1308C14.9776 15.3441 14.8854 15.592 14.8854 15.6843C14.8854 16.0014 15.2774 16.2032 15.5772 16.0417C15.7387 15.9552 16.0789 15.3153 16.1884 14.8886C16.3037 14.4273 16.2691 13.9488 16.0731 13.3146C15.9001 12.7553 15.8021 12.64 15.5138 12.64C15.3466 12.64 15.2717 12.6746 15.1794 12.7899Z" fill="white"/>
</svg>
