<svg width="10" height="14" viewBox="0 0 10 14" fill="none" xmlns="http://www.w3.org/2000/svg">
<path fill-rule="evenodd" clip-rule="evenodd" d="M0.625 2.71322C0.625 1.90822 1.27833 1.25488 2.08333 1.25488H5.0425C6.82167 1.25488 8.25 2.71322 8.25 4.49488C8.25128 5.34692 7.91791 6.16539 7.32167 6.77405C7.9319 7.04076 8.45114 7.4796 8.81583 8.03685C9.18052 8.59409 9.37484 9.24558 9.375 9.91155C9.37323 10.8217 9.01016 11.6939 8.36557 12.3364C7.72099 12.979 6.84764 13.3393 5.9375 13.3382H2.08333C1.69656 13.3382 1.32563 13.1846 1.05214 12.9111C0.778645 12.6376 0.625 12.2667 0.625 11.8799V2.71322ZM1.875 7.73488V11.8799C1.875 11.9949 1.96833 12.0882 2.08333 12.0882H5.9375C6.51612 12.0893 7.07153 11.8607 7.48169 11.4526C7.89185 11.0444 8.12323 10.4902 8.125 9.91155C8.12323 9.33293 7.89185 8.77867 7.48169 8.37054C7.07153 7.9624 6.51612 7.73378 5.9375 7.73488H1.875ZM1.875 6.48488H5.0425C6.11667 6.48488 7 5.60155 7 4.49488C7 3.38822 6.11667 2.50488 5.0425 2.50488H2.08333C2.02808 2.50488 1.97509 2.52683 1.93602 2.5659C1.89695 2.60497 1.875 2.65796 1.875 2.71322V6.48488Z" fill="white" stroke="white" stroke-width="1.25" stroke-linecap="round" stroke-linejoin="round"/>
</svg>
