<svg width="31" height="30" viewBox="0 0 31 30" fill="none" xmlns="http://www.w3.org/2000/svg">
<g clip-path="url(#clip0_512_1076)">
<path d="M23.4688 0H7.53125C3.648 0 0.5 3.148 0.5 7.03125V22.9688C0.5 26.852 3.648 30 7.53125 30H23.4688C27.352 30 30.5 26.852 30.5 22.9688V7.03125C30.5 3.148 27.352 0 23.4688 0Z" fill="#454545" fill-opacity="0.51"/>
<mask id="mask0_512_1076" style="mask-type:luminance" maskUnits="userSpaceOnUse" x="5" y="7" width="21" height="16">
<path d="M5.5 7.5H25.2166V22.7734H5.5V7.5Z" fill="white"/>
</mask>
<g mask="url(#mask0_512_1076)">
<path d="M22.1908 8.86055C20.9125 8.27385 19.5635 7.85542 18.1776 7.61574C18.165 7.61344 18.152 7.61515 18.1404 7.62064C18.1289 7.62612 18.1193 7.6351 18.1131 7.6463C17.9398 7.95447 17.7478 8.35669 17.6134 8.67275C16.0979 8.44581 14.5903 8.44581 13.1059 8.67275C12.9714 8.34959 12.7725 7.95447 12.5984 7.6463C12.592 7.63528 12.5824 7.62646 12.5709 7.621C12.5593 7.61555 12.5464 7.61371 12.5338 7.61574C11.1478 7.85488 9.79871 8.27333 8.52062 8.86055C8.50973 8.86528 8.50053 8.87318 8.4942 8.88322C5.93814 12.7019 5.23801 16.4268 5.58147 20.1055C5.58356 20.1237 5.59278 20.1403 5.6071 20.1516C7.29346 21.3901 8.92707 22.142 10.5303 22.6404C10.5428 22.644 10.5561 22.6439 10.5685 22.6398C10.5808 22.6358 10.5917 22.628 10.5995 22.6177C10.9788 22.0997 11.3168 21.5537 11.6068 20.9794C11.6107 20.9716 11.613 20.9629 11.6134 20.9541C11.6139 20.9453 11.6124 20.9365 11.6092 20.9283C11.6059 20.9201 11.601 20.9127 11.5947 20.9065C11.5884 20.9004 11.5808 20.8956 11.5725 20.8926C11.0363 20.6891 10.5257 20.4412 10.0346 20.1595C10.0256 20.1542 10.0181 20.1469 10.0127 20.138C10.0073 20.1291 10.0041 20.1191 10.0035 20.1087C10.0029 20.0984 10.0048 20.088 10.0092 20.0786C10.0135 20.0691 10.0201 20.0609 10.0283 20.0546C10.132 19.9772 10.2338 19.8974 10.3338 19.8153C10.3425 19.8081 10.3531 19.8034 10.3644 19.8019C10.3756 19.8004 10.3871 19.802 10.3974 19.8066C13.6242 21.2798 17.1175 21.2798 20.3062 19.8066C20.3166 19.8017 20.3282 19.7998 20.3396 19.8012C20.351 19.8026 20.3618 19.8072 20.3708 19.8145C20.4708 19.897 20.5729 19.9771 20.677 20.0546C20.6853 20.0609 20.6919 20.069 20.6963 20.0784C20.7007 20.0878 20.7027 20.0982 20.7022 20.1085C20.7016 20.1189 20.6986 20.1289 20.6932 20.1378C20.6879 20.1467 20.6804 20.1542 20.6715 20.1595C20.1801 20.4465 19.6654 20.6914 19.1328 20.8918C19.1245 20.895 19.117 20.8999 19.1108 20.9061C19.1045 20.9124 19.0997 20.9199 19.0965 20.9282C19.0934 20.9364 19.092 20.9453 19.0925 20.9541C19.093 20.9629 19.0953 20.9716 19.0993 20.9794C19.3943 21.5491 19.7306 22.0964 20.1057 22.6169C20.1133 22.6275 20.1241 22.6355 20.1365 22.6397C20.1489 22.6439 20.1623 22.6441 20.1749 22.6404C21.7859 22.142 23.4195 21.3901 25.106 20.1516C25.1132 20.1463 25.1192 20.1395 25.1236 20.1317C25.128 20.1239 25.1308 20.1152 25.1316 20.1063C25.5427 15.8533 24.443 12.1589 22.2164 8.88401C22.211 8.87334 22.2019 8.865 22.1908 8.86055ZM12.0886 17.8656C11.1171 17.8656 10.3166 16.9737 10.3166 15.8784C10.3166 14.783 11.1016 13.8911 12.0886 13.8911C13.0833 13.8911 13.876 14.7909 13.8605 15.8784C13.8605 16.9737 13.0755 17.8656 12.0886 17.8656ZM18.64 17.8656C17.6685 17.8656 16.8681 16.9737 16.8681 15.8784C16.8681 14.783 17.653 13.8911 18.64 13.8911C19.6347 13.8911 20.4275 14.7909 20.412 15.8784C20.412 16.9737 19.6347 17.8656 18.64 17.8656Z" fill="white"/>
</g>
</g>
<defs>
<clipPath id="clip0_512_1076">
<rect width="30" height="30" fill="white" transform="translate(0.5)"/>
</clipPath>
</defs>
</svg>
