<svg width="32" height="31" viewBox="0 0 32 31" fill="none" xmlns="http://www.w3.org/2000/svg">
<rect x="0.75" width="30.5" height="30.5" rx="15.25" fill="white"/>
<g clip-path="url(#clip0_385_793)">
<path d="M12.5881 4.73957C10.34 5.51946 8.40125 6.99971 7.05661 8.9629C5.71197 10.9261 5.03231 13.2687 5.11748 15.6467C5.20265 18.0247 6.04815 20.3128 7.52979 22.1747C9.01143 24.0367 11.0511 25.3745 13.3492 25.9915C15.2124 26.4723 17.1644 26.4934 19.0375 26.0531C20.7344 25.6719 22.3032 24.8566 23.5903 23.687C24.9299 22.4326 25.9022 20.8367 26.4028 19.071C26.9468 17.1509 27.0437 15.1316 26.6858 13.1683H16.2233V17.5083H22.2824C22.1613 18.2005 21.9018 18.8612 21.5195 19.4508C21.1371 20.0403 20.6397 20.5467 20.0571 20.9396C19.3172 21.429 18.4831 21.7583 17.6084 21.9064C16.7312 22.0695 15.8314 22.0695 14.9541 21.9064C14.065 21.7225 13.2239 21.3556 12.4844 20.8288C11.2964 19.9879 10.4043 18.7932 9.93557 17.4152C9.45888 16.0114 9.45888 14.4895 9.93557 13.0857C10.2693 12.1017 10.8209 11.2057 11.5492 10.4648C12.3828 9.60124 13.4381 8.98398 14.5993 8.68072C15.7606 8.37746 16.9829 8.39992 18.1323 8.74563C19.0301 9.02124 19.8511 9.50278 20.5299 10.1519C21.2131 9.47219 21.8951 8.79075 22.576 8.10754C22.9276 7.74016 23.3108 7.39036 23.6571 7.01418C22.6209 6.04998 21.4047 5.29971 20.0781 4.80637C17.6624 3.9292 15.0191 3.90563 12.5881 4.73957Z" fill="white"/>
<path d="M12.5878 4.73994C15.0186 3.90543 17.6619 3.92838 20.0778 4.80498C21.4047 5.30167 22.6203 6.05555 23.655 7.02334C23.3034 7.39951 22.9325 7.75107 22.5739 8.1167C21.8919 8.79756 21.2104 9.47607 20.5296 10.1522C19.8508 9.50315 19.0298 9.0216 18.1319 8.74599C16.983 8.39907 15.7607 8.37532 14.5991 8.67734C13.4376 8.97936 12.3816 9.59548 11.5472 10.4581C10.8188 11.1991 10.2672 12.095 9.9335 13.079L6.28955 10.2577C7.59386 7.6712 9.8522 5.69272 12.5878 4.73994Z" fill="#E33629"/>
<path d="M5.32343 13.0527C5.51929 12.0821 5.84445 11.142 6.29023 10.2578L9.93417 13.0861C9.45748 14.4899 9.45748 16.0118 9.93417 17.4156C8.72011 18.3531 7.50546 19.2953 6.29023 20.2422C5.17428 18.0209 4.83394 15.4899 5.32343 13.0527Z" fill="#F8BD00"/>
<path d="M16.2234 13.167H26.6859C27.0438 15.1304 26.947 17.1496 26.4029 19.0697C25.9024 20.8354 24.93 22.4313 23.5904 23.6857C22.4145 22.7682 21.2332 21.8576 20.0572 20.94C20.6403 20.5468 21.1379 20.0399 21.5203 19.4496C21.9027 18.8594 22.162 18.1981 22.2826 17.5053H16.2234C16.2217 16.0604 16.2234 14.6137 16.2234 13.167Z" fill="#587DBD"/>
<path d="M6.28809 20.2426C7.50332 19.3051 8.71797 18.3629 9.93203 17.416C10.4017 18.7945 11.295 19.9893 12.4844 20.8297C13.2262 21.354 14.0691 21.718 14.9594 21.8984C15.8366 22.0616 16.7364 22.0616 17.6137 21.8984C18.4884 21.7504 19.3224 21.4211 20.0623 20.9316C21.2383 21.8492 22.4195 22.7598 23.5955 23.6773C22.3086 24.8476 20.7398 25.6635 19.0428 26.0451C17.1697 26.4855 15.2176 26.4643 13.3545 25.9836C11.8809 25.5901 10.5045 24.8966 9.31152 23.9463C8.04882 22.9438 7.0175 21.6804 6.28809 20.2426Z" fill="#319F43"/>
</g>
<defs>
<clipPath id="clip0_385_793">
<rect width="22.5" height="22.5" fill="white" transform="translate(4.75 4)"/>
</clipPath>
</defs>
</svg>
