<svg width="208" height="38" viewBox="0 0 208 38" fill="none" xmlns="http://www.w3.org/2000/svg">
<path d="M4.14001 20.3797C7.36001 15.0897 18.492 6.4418 34.5 16.9298M34.5 16.9298C38.64 18.3098 42.78 17.6197 45.54 14.1698M34.5 16.9298C30.636 28.5218 15.41 27.7398 8.28001 25.8998" stroke="white" stroke-width="1.38" stroke-linecap="round"/>
<path d="M12.4202 13.48C11.2702 16.7 12.4202 24.52 18.6302 24.52C24.8402 24.52 26.2202 17.39 24.8402 12.79" stroke="white" stroke-width="1.38" stroke-linecap="round"/>
<path d="M19.3201 20.3798V15.5498" stroke="white" stroke-width="1.38" stroke-linecap="round"/>
<path d="M60.4521 27.5H57.6566L63.9379 10.0455H66.9805L73.2618 27.5H70.4663L65.5316 13.2159H65.3953L60.4521 27.5ZM60.9209 20.6648H69.989V22.8807H60.9209V20.6648ZM81.0089 27.7642C79.7191 27.7642 78.6084 27.4886 77.6765 26.9375C76.7504 26.3807 76.0345 25.5994 75.5288 24.5938C75.0288 23.5824 74.7788 22.3977 74.7788 21.0398C74.7788 19.6989 75.0288 18.517 75.5288 17.4943C76.0345 16.4716 76.739 15.6733 77.6424 15.0994C78.5515 14.5256 79.614 14.2386 80.8299 14.2386C81.5686 14.2386 82.2845 14.3608 82.9777 14.6051C83.6709 14.8494 84.293 15.233 84.8441 15.7557C85.3953 16.2784 85.8299 16.9574 86.1481 17.7926C86.4663 18.6222 86.6254 19.6307 86.6254 20.8182V21.7216H76.2191V19.8125H84.1282C84.1282 19.142 83.9919 18.5483 83.7191 18.0312C83.4464 17.5085 83.0629 17.0966 82.5686 16.7955C82.0799 16.4943 81.5061 16.3438 80.847 16.3438C80.1311 16.3438 79.5061 16.5199 78.972 16.8722C78.4436 17.2187 78.0345 17.6733 77.7447 18.2358C77.4606 18.7926 77.3186 19.3977 77.3186 20.0511V21.5426C77.3186 22.4176 77.472 23.1619 77.7788 23.7756C78.0913 24.3892 78.526 24.858 79.0828 25.1818C79.6396 25.5 80.2902 25.6591 81.0345 25.6591C81.5174 25.6591 81.9578 25.5909 82.3555 25.4545C82.7532 25.3125 83.097 25.1023 83.3868 24.8239C83.6765 24.5455 83.8981 24.2017 84.0515 23.7926L86.4635 24.2273C86.2703 24.9375 85.9237 25.5597 85.4237 26.0938C84.9294 26.6222 84.3072 27.0341 83.5572 27.3295C82.8129 27.6193 81.9635 27.7642 81.0089 27.7642ZM95.5636 14.4091V16.4545H88.413V14.4091H95.5636ZM90.3307 11.2727H92.879V23.6562C92.879 24.1506 92.9528 24.5227 93.1005 24.7727C93.2483 25.017 93.4386 25.1847 93.6716 25.2756C93.9102 25.3608 94.1687 25.4034 94.4471 25.4034C94.6517 25.4034 94.8307 25.3892 94.9841 25.3608C95.1375 25.3324 95.2568 25.3097 95.342 25.2926L95.8022 27.3977C95.6545 27.4545 95.4443 27.5114 95.1716 27.5682C94.8988 27.6307 94.5579 27.6648 94.1488 27.6705C93.4784 27.6818 92.8534 27.5625 92.2738 27.3125C91.6943 27.0625 91.2255 26.6761 90.8676 26.1534C90.5096 25.6307 90.3307 24.9744 90.3307 24.1847V11.2727ZM101.212 19.7273V27.5H98.6638V10.0455H101.178V16.5398H101.34C101.647 15.8352 102.115 15.2756 102.746 14.8608C103.377 14.446 104.201 14.2386 105.218 14.2386C106.115 14.2386 106.9 14.4233 107.57 14.7926C108.246 15.1619 108.769 15.7131 109.138 16.446C109.513 17.1733 109.701 18.0824 109.701 19.1733V27.5H107.152V19.4801C107.152 18.5199 106.905 17.7756 106.411 17.2472C105.917 16.7131 105.229 16.446 104.348 16.446C103.746 16.446 103.206 16.5739 102.729 16.8295C102.258 17.0852 101.885 17.4602 101.613 17.9545C101.346 18.4432 101.212 19.0341 101.212 19.7273ZM118.743 27.7642C117.454 27.7642 116.343 27.4886 115.411 26.9375C114.485 26.3807 113.769 25.5994 113.263 24.5938C112.763 23.5824 112.513 22.3977 112.513 21.0398C112.513 19.6989 112.763 18.517 113.263 17.4943C113.769 16.4716 114.473 15.6733 115.377 15.0994C116.286 14.5256 117.348 14.2386 118.564 14.2386C119.303 14.2386 120.019 14.3608 120.712 14.6051C121.405 14.8494 122.027 15.233 122.579 15.7557C123.13 16.2784 123.564 16.9574 123.883 17.7926C124.201 18.6222 124.36 19.6307 124.36 20.8182V21.7216H113.954V19.8125H121.863C121.863 19.142 121.726 18.5483 121.454 18.0312C121.181 17.5085 120.797 17.0966 120.303 16.7955C119.814 16.4943 119.24 16.3438 118.581 16.3438C117.865 16.3438 117.24 16.5199 116.706 16.8722C116.178 17.2187 115.769 17.6733 115.479 18.2358C115.195 18.7926 115.053 19.3977 115.053 20.0511V21.5426C115.053 22.4176 115.206 23.1619 115.513 23.7756C115.826 24.3892 116.26 24.858 116.817 25.1818C117.374 25.5 118.025 25.6591 118.769 25.6591C119.252 25.6591 119.692 25.5909 120.09 25.4545C120.488 25.3125 120.831 25.1023 121.121 24.8239C121.411 24.5455 121.633 24.2017 121.786 23.7926L124.198 24.2273C124.005 24.9375 123.658 25.5597 123.158 26.0938C122.664 26.6222 122.042 27.0341 121.292 27.3295C120.547 27.6193 119.698 27.7642 118.743 27.7642ZM127.187 27.5V14.4091H129.65V16.4886H129.787C130.025 15.7841 130.446 15.2301 131.048 14.8267C131.656 14.4176 132.343 14.2131 133.11 14.2131C133.27 14.2131 133.457 14.2187 133.673 14.2301C133.895 14.2415 134.068 14.2557 134.193 14.2727V16.7102C134.091 16.6818 133.909 16.6506 133.647 16.6165C133.386 16.5767 133.125 16.5568 132.863 16.5568C132.261 16.5568 131.724 16.6847 131.253 16.9403C130.787 17.1903 130.417 17.5398 130.145 17.9886C129.872 18.4318 129.735 18.9375 129.735 19.5057V27.5H127.187ZM137.116 27.5H134.321L140.602 10.0455H143.645L149.926 27.5H147.13L142.196 13.2159H142.059L137.116 27.5ZM137.585 20.6648H146.653V22.8807H137.585V20.6648ZM154.79 19.7273V27.5H152.242V14.4091H154.688V16.5398H154.85C155.151 15.8466 155.623 15.2898 156.265 14.8693C156.912 14.4489 157.728 14.2386 158.711 14.2386C159.603 14.2386 160.384 14.4261 161.054 14.8011C161.725 15.1705 162.245 15.7216 162.614 16.4545C162.983 17.1875 163.168 18.0937 163.168 19.1733V27.5H160.62V19.4801C160.62 18.5312 160.373 17.7898 159.878 17.2557C159.384 16.7159 158.705 16.446 157.841 16.446C157.25 16.446 156.725 16.5739 156.265 16.8295C155.81 17.0852 155.449 17.4602 155.182 17.9545C154.921 18.4432 154.79 19.0341 154.79 19.7273ZM166.586 27.5V14.4091H169.134V27.5H166.586ZM167.873 12.3892C167.429 12.3892 167.049 12.2415 166.731 11.946C166.418 11.6449 166.262 11.2869 166.262 10.8722C166.262 10.4517 166.418 10.0937 166.731 9.79829C167.049 9.49716 167.429 9.34659 167.873 9.34659C168.316 9.34659 168.694 9.49716 169.006 9.79829C169.324 10.0937 169.483 10.4517 169.483 10.8722C169.483 11.2869 169.324 11.6449 169.006 11.946C168.694 12.2415 168.316 12.3892 167.873 12.3892ZM172.562 27.5V14.4091H175.008V16.5398H175.17C175.443 15.8182 175.889 15.2557 176.508 14.8523C177.128 14.4432 177.869 14.2386 178.733 14.2386C179.608 14.2386 180.341 14.4432 180.932 14.8523C181.528 15.2614 181.968 15.8239 182.253 16.5398H182.389C182.701 15.8409 183.199 15.2841 183.88 14.8693C184.562 14.4489 185.375 14.2386 186.318 14.2386C187.505 14.2386 188.474 14.6108 189.224 15.3551C189.98 16.0994 190.358 17.2216 190.358 18.7216V27.5H187.809V18.9602C187.809 18.0739 187.568 17.4318 187.085 17.0341C186.602 16.6364 186.025 16.4375 185.355 16.4375C184.525 16.4375 183.88 16.6932 183.42 17.2045C182.96 17.7102 182.73 18.3608 182.73 19.1562V27.5H180.19V18.7983C180.19 18.0881 179.968 17.517 179.525 17.0852C179.082 16.6534 178.505 16.4375 177.795 16.4375C177.312 16.4375 176.866 16.5653 176.457 16.821C176.054 17.071 175.727 17.4205 175.477 17.8693C175.233 18.3182 175.11 18.8381 175.11 19.429V27.5H172.562ZM199.415 27.7642C198.125 27.7642 197.015 27.4886 196.083 26.9375C195.157 26.3807 194.441 25.5994 193.935 24.5938C193.435 23.5824 193.185 22.3977 193.185 21.0398C193.185 19.6989 193.435 18.517 193.935 17.4943C194.441 16.4716 195.145 15.6733 196.049 15.0994C196.958 14.5256 198.02 14.2386 199.236 14.2386C199.975 14.2386 200.691 14.3608 201.384 14.6051C202.077 14.8494 202.699 15.233 203.25 15.7557C203.802 16.2784 204.236 16.9574 204.554 17.7926C204.873 18.6222 205.032 19.6307 205.032 20.8182V21.7216H194.625V19.8125H202.534C202.534 19.142 202.398 18.5483 202.125 18.0312C201.853 17.5085 201.469 17.0966 200.975 16.7955C200.486 16.4943 199.912 16.3438 199.253 16.3438C198.537 16.3438 197.912 16.5199 197.378 16.8722C196.85 17.2187 196.441 17.6733 196.151 18.2358C195.867 18.7926 195.725 19.3977 195.725 20.0511V21.5426C195.725 22.4176 195.878 23.1619 196.185 23.7756C196.498 24.3892 196.932 24.858 197.489 25.1818C198.046 25.5 198.696 25.6591 199.441 25.6591C199.924 25.6591 200.364 25.5909 200.762 25.4545C201.159 25.3125 201.503 25.1023 201.793 24.8239C202.083 24.5455 202.304 24.2017 202.458 23.7926L204.87 24.2273C204.677 24.9375 204.33 25.5597 203.83 26.0938C203.336 26.6222 202.713 27.0341 201.963 27.3295C201.219 27.6193 200.37 27.7642 199.415 27.7642Z" fill="white"/>
</svg>
