<svg width="19" height="21" viewBox="0 0 19 21" fill="none" xmlns="http://www.w3.org/2000/svg">
<path d="M9.59348 0.74969C5.54838 0.940218 2.44888 4.41564 2.44888 8.43771V12.0745L1.12258 14.7427C1.12025 14.7476 1.11797 14.7525 1.11574 14.7574C0.582168 15.8921 1.4459 17.2546 2.70006 17.2546H6.95261C6.95261 18.9039 8.30581 20.2571 9.95511 20.2571C11.6044 20.2571 12.9576 18.9039 12.9576 17.2546H17.2092C18.4633 17.2546 19.3282 15.8924 18.7945 14.7574C18.7922 14.7525 18.79 14.7476 18.7876 14.7427L17.4613 12.0745V8.24712C17.4613 3.99049 13.89 0.547416 9.59348 0.74969ZM9.66385 2.24898C13.1267 2.08595 15.9601 4.82538 15.9601 8.24712V12.2504C15.96 12.3664 15.9867 12.4808 16.0383 12.5847L17.4359 15.3976C17.5258 15.5902 17.4218 15.7534 17.2092 15.7534H2.70006C2.48742 15.7534 2.38428 15.5905 2.47429 15.3976V15.3966L3.87193 12.5847C3.92346 12.4808 3.95023 12.3664 3.95012 12.2504V8.43771C3.95012 5.18475 6.44191 2.40074 9.66385 2.24898ZM8.45386 17.2546H11.4564C11.4564 18.0924 10.7929 18.7558 9.95511 18.7558C9.11734 18.7558 8.45386 18.0924 8.45386 17.2546Z" fill="white"/>
</svg>
