<svg width="10" height="16" viewBox="0 0 10 16" fill="none" xmlns="http://www.w3.org/2000/svg">
<path d="M1 0.000976562C1.24493 0.00100887 1.48134 0.0909325 1.66437 0.253692C1.84741 0.416451 1.96434 0.640725 1.993 0.883976L2 1.00098V15.001C1.99972 15.2559 1.90212 15.501 1.72715 15.6863C1.55218 15.8717 1.31305 15.9832 1.05861 15.9981C0.804163 16.0131 0.553621 15.9303 0.358168 15.7667C0.162715 15.6031 0.0371036 15.3711 0.00699997 15.118L0 15.001V1.00098C0 0.73576 0.105357 0.481406 0.292893 0.29387C0.48043 0.106334 0.734784 0.000976562 1 0.000976562ZM9 0.000976562C9.24493 0.00100887 9.48134 0.0909325 9.66437 0.253692C9.84741 0.416451 9.96434 0.640725 9.993 0.883976L10 1.00098V15.001C9.99972 15.2559 9.90212 15.501 9.72715 15.6863C9.55218 15.8717 9.31305 15.9832 9.05861 15.9981C8.80416 16.0131 8.55362 15.9303 8.35817 15.7667C8.16271 15.6031 8.0371 15.3711 8.007 15.118L8 15.001V1.00098C8 0.73576 8.10536 0.481406 8.29289 0.29387C8.48043 0.106334 8.73478 0.000976562 9 0.000976562Z" fill="white"/>
</svg>
