<svg width="15" height="14" viewBox="0 0 15 14" fill="none" xmlns="http://www.w3.org/2000/svg">
<path fill-rule="evenodd" clip-rule="evenodd" d="M6.47213 0.747009C6.54549 0.621115 6.65058 0.516658 6.77692 0.444058C6.90325 0.371458 7.04642 0.333252 7.19213 0.333252C7.33784 0.333252 7.481 0.371458 7.60734 0.444058C7.73367 0.516658 7.83876 0.621115 7.91213 0.747009L9.77546 3.94568L13.3941 4.72967C13.5365 4.76061 13.6682 4.82831 13.7762 4.92603C13.8843 5.02375 13.9648 5.14808 14.0098 5.28662C14.0548 5.42517 14.0626 5.57308 14.0326 5.71562C14.0026 5.85816 13.9358 5.99035 13.8388 6.09901L11.3721 8.85967L11.7455 12.543C11.7602 12.688 11.7366 12.8344 11.6771 12.9675C11.6176 13.1006 11.5242 13.2157 11.4062 13.3014C11.2883 13.3871 11.1499 13.4403 11.005 13.4558C10.86 13.4713 10.7135 13.4485 10.5801 13.3897L7.19213 11.8963L3.80413 13.3897C3.67074 13.4485 3.52426 13.4713 3.3793 13.4558C3.23434 13.4403 3.09598 13.3871 2.97804 13.3014C2.8601 13.2157 2.7667 13.1006 2.70717 12.9675C2.64765 12.8344 2.62407 12.688 2.6388 12.543L3.01213 8.85967L0.545462 6.09968C0.448281 5.99103 0.381299 5.85878 0.351205 5.71615C0.32111 5.57352 0.328956 5.4255 0.373958 5.28685C0.41896 5.1482 0.499544 5.02378 0.607666 4.92601C0.715788 4.82824 0.847664 4.76054 0.990129 4.72967L4.6088 3.94568L6.47213 0.747009ZM7.19213 2.15968L5.65013 4.80767C5.59182 4.90762 5.51334 4.99433 5.41968 5.06228C5.32602 5.13023 5.21924 5.17793 5.10613 5.20234L2.11146 5.85101L4.1528 8.13567C4.3088 8.31034 4.38413 8.54234 4.3608 8.77501L4.05213 11.8237L6.85613 10.5877C6.962 10.541 7.07643 10.5169 7.19213 10.5169C7.30783 10.5169 7.42225 10.541 7.52813 10.5877L10.3321 11.8237L10.0235 8.77501C10.0117 8.65989 10.0241 8.54358 10.0598 8.43351C10.0955 8.32344 10.1537 8.22201 10.2308 8.13567L12.2728 5.85101L9.27813 5.20234C9.16502 5.17793 9.05824 5.13023 8.96458 5.06228C8.87092 4.99433 8.79244 4.90762 8.73413 4.80767L7.19213 2.15968Z" fill="white"/>
</svg>
