<svg width="14" height="14" viewBox="0 0 21 21" fill="none" xmlns="http://www.w3.org/2000/svg">
<path d="M9.40851 1.32083C9.51856 1.13199 9.67619 0.975305 9.8657 0.866404C10.0552 0.757504 10.2699 0.700195 10.4885 0.700195C10.7071 0.700195 10.9218 0.757504 11.1113 0.866404C11.3008 0.975305 11.4585 1.13199 11.5685 1.32083L14.3635 6.11883L19.7915 7.29483C20.005 7.34123 20.2026 7.44278 20.3647 7.58936C20.5267 7.73595 20.6475 7.92244 20.715 8.13025C20.7824 8.33807 20.7943 8.55994 20.7493 8.77375C20.7043 8.98756 20.604 9.18584 20.4585 9.34883L16.7585 13.4898L17.3185 19.0148C17.3406 19.2324 17.3052 19.4519 17.2159 19.6515C17.1266 19.8512 16.9865 20.0239 16.8096 20.1524C16.6327 20.2809 16.4252 20.3608 16.2078 20.384C15.9903 20.4073 15.7706 20.3731 15.5705 20.2848L10.4885 18.0448L5.40651 20.2848C5.20643 20.3731 4.9867 20.4073 4.76926 20.384C4.55183 20.3608 4.34429 20.2809 4.16738 20.1524C3.99047 20.0239 3.85037 19.8512 3.76108 19.6515C3.67179 19.4519 3.63642 19.2324 3.65851 19.0148L4.21851 13.4898L0.518511 9.34983C0.372738 9.18686 0.272266 8.98849 0.227124 8.77455C0.181983 8.5606 0.193751 8.33856 0.261254 8.13059C0.328757 7.92261 0.449634 7.73598 0.611817 7.58933C0.773999 7.44268 0.971813 7.34113 1.18551 7.29483L6.61351 6.11883L9.40851 1.32083Z" fill="white"/>
</svg>
