<svg width="15" height="18" viewBox="0 0 15 18" fill="none" xmlns="http://www.w3.org/2000/svg">
<path d="M0 8.29648H15M11.2017 4.84193C11.1122 4.08625 10.7493 3.4996 10.1129 3.08199C9.47656 2.66437 8.69602 2.45557 7.77131 2.45557C7.09517 2.45557 6.50355 2.56494 5.99645 2.78369C5.49432 3.00244 5.10156 3.30322 4.81818 3.68604C4.53977 4.06885 4.40057 4.50386 4.40057 4.99108C4.40057 5.39875 4.49751 5.74925 4.69141 6.04257C4.89027 6.33092 5.14382 6.57204 5.45206 6.76594C5.7603 6.95486 6.08345 7.11146 6.42152 7.23575C6.75959 7.35507 7.07031 7.45202 7.35369 7.52659L8.90483 7.9442C9.30256 8.04861 9.74503 8.19278 10.2322 8.37673C10.7244 8.56068 11.1942 8.81175 11.6417 9.12993C12.0941 9.44314 12.467 9.84584 12.7603 10.338C13.0536 10.8302 13.2003 11.4343 13.2003 12.1502C13.2003 12.9755 12.984 13.7212 12.5515 14.3874C12.1239 15.0536 11.4975 15.5831 10.6722 15.9758C9.85192 16.3686 8.85511 16.5649 7.68182 16.5649C6.58807 16.5649 5.64098 16.3885 4.84055 16.0355C4.0451 15.6825 3.41868 15.1903 2.96129 14.5589C2.50888 13.9275 2.25284 13.1942 2.19318 12.359H4.10227C4.15199 12.9357 4.34588 13.413 4.68395 13.7908C5.02699 14.1637 5.45952 14.4421 5.98153 14.626C6.50852 14.805 7.07528 14.8945 7.68182 14.8945C8.38778 14.8945 9.02166 14.7801 9.58345 14.5514C10.1452 14.3178 10.5902 13.9946 10.9183 13.582C11.2464 13.1644 11.4105 12.6772 11.4105 12.1203C11.4105 11.6132 11.2688 11.2006 10.9854 10.8824C10.7021 10.5642 10.3292 10.3057 9.86683 10.1068C9.40447 9.90798 8.90483 9.73398 8.3679 9.58483L6.48864 9.0479C5.29545 8.70486 4.35085 8.21516 3.65483 7.57879C2.95881 6.94243 2.6108 6.10969 2.6108 5.08057C2.6108 4.22545 2.84197 3.47971 3.30433 2.84335C3.77166 2.20202 4.39808 1.70486 5.18359 1.35187C5.97408 0.993919 6.85653 0.814941 7.83097 0.814941C8.81534 0.814941 9.69034 0.991433 10.456 1.34442C11.2216 1.69243 11.8281 2.1697 12.2756 2.77623C12.728 3.38277 12.9666 4.07133 12.9915 4.84193H11.2017Z" stroke="white" stroke-width="1.5"/>
</svg>
