<svg width="30" height="30" viewBox="0 0 30 30" fill="none" xmlns="http://www.w3.org/2000/svg">
<g clip-path="url(#clip0_512_1077)">
<path d="M15 0C11.0227 0 7.20469 1.58133 4.39453 4.39336C1.5815 7.20652 0.000804958 11.0217 0 15C0 18.9766 1.58203 22.7946 4.39453 25.6066C7.20469 28.4187 11.0227 30 15 30C18.9773 30 22.7953 28.4187 25.6055 25.6066C28.418 22.7946 30 18.9766 30 15C30 11.0234 28.418 7.20539 25.6055 4.39336C22.7953 1.58133 18.9773 0 15 0Z" fill="#454545" fill-opacity="0.51"/>
<path d="M6.79151 14.8411C11.165 12.9361 14.0806 11.6801 15.5384 11.0733C19.7056 9.34052 20.5704 9.03958 21.1353 9.02939C21.2595 9.02739 21.536 9.0581 21.7165 9.20399C21.8665 9.32704 21.9087 9.49345 21.9298 9.61028C21.9485 9.727 21.9743 9.99302 21.9532 10.2007C21.7282 12.5726 20.7509 18.3283 20.254 20.985C20.0454 22.109 19.6306 22.4859 19.2298 22.5227C18.3579 22.6029 17.697 21.9471 16.8532 21.3942C15.5337 20.5286 14.7884 19.9901 13.5064 19.1456C12.0251 18.1697 12.986 17.6332 13.8298 16.7566C14.0501 16.5272 17.8892 13.0361 17.9618 12.7195C17.9712 12.6799 17.9806 12.5322 17.8915 12.4544C17.8048 12.3764 17.6759 12.4031 17.5821 12.4242C17.4485 12.4542 15.3415 13.8483 11.254 16.6061C10.6564 17.0172 10.115 17.2176 9.62745 17.2071C9.09308 17.1956 8.06183 16.9043 7.29542 16.6554C6.35792 16.35 5.61026 16.1885 5.67589 15.6698C5.7087 15.3998 6.08136 15.1235 6.79151 14.8411Z" fill="white"/>
</g>
<defs>
<clipPath id="clip0_512_1077">
<rect width="30" height="30" fill="white"/>
</clipPath>
</defs>
</svg>
