<svg xmlns="http://www.w3.org/2000/svg" width="40" height="40" viewBox="0 0 40 40" fill="none">
  <rect width="40" height="40" rx="16" fill="white" fill-opacity="0.05"/>
  <path d="M9.05535 19.7881C14.8866 17.2481 18.7741 15.5735 20.7179 14.7643C26.2741 12.454 27.4272 12.0528 28.1803 12.0392C28.346 12.0365 28.7147 12.0775 28.9554 12.272C29.1554 12.4361 29.2116 12.6579 29.2397 12.8137C29.2647 12.9693 29.2991 13.324 29.271 13.6009C28.971 16.7634 27.6679 24.4378 27.0054 27.98C26.7272 29.4787 26.1741 29.9812 25.6397 30.0303C24.4772 30.1371 23.596 29.2628 22.471 28.5256C20.7116 27.3715 19.7179 26.6534 18.0085 25.5275C16.0335 24.2262 17.3147 23.5109 18.4397 22.3421C18.7335 22.0362 23.8522 17.3815 23.9491 16.9593C23.9616 16.9065 23.9741 16.7096 23.8554 16.6059C23.7397 16.5018 23.5679 16.5375 23.4429 16.5656C23.2647 16.6056 20.4554 18.4643 15.0054 22.1415C14.2085 22.6897 13.4866 22.9568 12.8366 22.9428C12.1241 22.9275 10.7491 22.539 9.72723 22.2071C8.47723 21.8 7.48035 21.5847 7.56785 20.8931C7.6116 20.5331 8.10848 20.1646 9.05535 19.7881Z" fill="#E0E0E0"/>
</svg>