<svg width="16" height="15" viewBox="0 0 16 15" fill="none" xmlns="http://www.w3.org/2000/svg">
<path d="M14.8001 13.0473C14.7931 13.0473 14.7865 13.0491 14.7793 13.0493V13.0473H1.1793V13.0493C0.857698 13.0605 0.600098 13.3231 0.600098 13.6473C0.600098 13.9715 0.857698 14.2341 1.1795 14.2453V14.2473H14.7795V14.2453C14.7865 14.2455 14.7931 14.2473 14.8003 14.2473C14.9594 14.2473 15.112 14.184 15.2245 14.0715C15.337 13.959 15.4002 13.8063 15.4002 13.6472C15.4002 13.4881 15.3369 13.3355 15.2244 13.223C15.1118 13.1105 14.9592 13.0473 14.8001 13.0473ZM3.0743 11.6673H4.2101C4.31809 11.6669 4.42329 11.633 4.51109 11.5701C4.5989 11.5073 4.66496 11.4186 4.7001 11.3165L5.3987 9.4775H10.5927L11.3137 11.3759L11.3179 11.3751C11.3572 11.455 11.4163 11.5234 11.4897 11.5737C11.5631 11.624 11.6483 11.6546 11.7369 11.6625V11.6673H12.8727V11.6625C12.8883 11.6639 12.9033 11.6673 12.9193 11.6673C13.0574 11.6673 13.1899 11.6124 13.2876 11.5148C13.3852 11.4171 13.4401 11.2846 13.4401 11.1465C13.4401 11.0933 13.4299 11.0431 13.4151 10.9947L13.4175 10.9943L13.4053 10.9631C13.4017 10.953 13.3978 10.943 13.3935 10.9331L9.3753 0.703703H9.3717C9.33765 0.599858 9.27175 0.509378 9.18336 0.445113C9.09497 0.380848 8.98858 0.346065 8.8793 0.345703H7.1169C7.00599 0.346097 6.89811 0.381943 6.80901 0.448005C6.71992 0.514068 6.65429 0.606887 6.6217 0.712903L2.5829 10.9729L2.5853 10.9733C2.5661 11.0277 2.5535 11.0853 2.5535 11.1463C2.5535 11.2844 2.60836 11.4169 2.70602 11.5146C2.80369 11.6123 2.93615 11.6672 3.0743 11.6673ZM7.9957 2.3317L10.0327 7.7295H5.9587L7.9957 2.3317Z" fill="white"/>
</svg>
