<svg width="15" height="16" viewBox="0 0 15 16" fill="none" xmlns="http://www.w3.org/2000/svg">
<path d="M2.91464 4.58441C2.91481 3.79399 3.11929 3.01703 3.50825 2.32894C3.89722 1.64084 4.45745 1.06498 5.13458 0.657224C5.81171 0.249472 6.58274 0.0236817 7.37286 0.00176359C8.16298 -0.0201545 8.94534 0.162544 9.64404 0.53213C10.3427 0.901716 10.934 1.44564 11.3605 2.11111C11.787 2.77659 12.0343 3.54101 12.0783 4.33021C12.1223 5.11941 11.9615 5.90657 11.6116 6.61532C11.2616 7.32406 10.7345 7.93032 10.0812 8.37526C11.488 8.89126 12.7083 9.81649 13.5849 11.0319C14.4615 12.2472 14.9544 13.6971 15 15.1949C14.9981 15.3564 14.9338 15.5109 14.8206 15.6262C14.7075 15.7414 14.5541 15.8084 14.3927 15.8133C14.2313 15.8181 14.0742 15.7604 13.9543 15.6521C13.8345 15.5439 13.7611 15.3935 13.7494 15.2325C13.6998 13.608 13.0196 12.0666 11.8529 10.9351C10.6863 9.80352 9.12486 9.1707 7.49959 9.1707C5.87433 9.1707 4.31292 9.80352 3.14627 10.9351C1.97961 12.0666 1.29939 13.608 1.24974 15.2325C1.24139 15.3957 1.16943 15.5492 1.04928 15.6601C0.929131 15.7709 0.770341 15.8303 0.606931 15.8255C0.443522 15.8207 0.288489 15.7521 0.175047 15.6344C0.061604 15.5167 -0.00122546 15.3593 1.81145e-05 15.1958C0.0454977 13.6978 0.538262 12.2477 1.41488 11.0322C2.2915 9.81667 3.51186 8.89132 4.91886 8.37526C4.30116 7.95456 3.79564 7.38925 3.44633 6.72855C3.09701 6.06784 2.91449 5.33177 2.91464 4.58441ZM7.50001 1.2496C6.61556 1.2496 5.76734 1.60094 5.14194 2.22634C4.51654 2.85174 4.1652 3.69996 4.1652 4.58441C4.1652 5.46886 4.51654 6.31708 5.14194 6.94248C5.76734 7.56788 6.61556 7.91922 7.50001 7.91922C8.38446 7.91922 9.23268 7.56788 9.85808 6.94248C10.4835 6.31708 10.8348 5.46886 10.8348 4.58441C10.8348 3.69996 10.4835 2.85174 9.85808 2.22634C9.23268 1.60094 8.38446 1.2496 7.50001 1.2496Z" fill="white"/>
</svg>
