<svg xmlns="http://www.w3.org/2000/svg" width="40" height="40" viewBox="0 0 40 40" fill="none">
  <rect width="40" height="40" rx="16" fill="white" fill-opacity="0.05"/>
  <path fill-rule="evenodd" clip-rule="evenodd" d="M11.3337 12.1735H6.74707C6.9604 22.5735 12.1604 28.8135 21.2804 28.8135H21.8137V22.8668C25.1604 23.2002 27.6937 25.6535 28.7071 28.8135H33.4404C32.9552 27.0177 32.0947 25.3453 30.9156 23.9065C29.7366 22.4678 28.2658 21.2954 26.6004 20.4668C28.0924 19.5579 29.3811 18.3512 30.3859 16.922C31.3907 15.4928 32.0901 13.8718 32.4404 12.1602H28.1471C27.2137 15.4668 24.4404 18.4668 21.8137 18.7468V12.1735H17.5071V23.6935C14.8404 23.0268 11.4804 19.8002 11.3337 12.1735Z" fill="#E0E0E0"/>
</svg>