<svg width="100%" height="100%" viewBox="0 0 22 22" fill="none" xmlns="http://www.w3.org/2000/svg">
<path d="M15.7999 7.43764C16.4166 8.46502 16.7499 9.71462 16.7499 10.9988C16.7499 12.2831 16.4166 13.5326 15.7999 14.56M17.9957 18.5532C18.7896 17.5612 19.4195 16.3834 19.8492 15.0872C20.2788 13.7911 20.5 12.4018 20.5 10.9988C20.5 9.5958 20.2788 8.20657 19.8492 6.91038C19.4195 5.61418 18.7896 4.43644 17.9957 3.44438M12.05 2.33567C12.0498 2.17032 12.0103 2.00875 11.9368 1.87135C11.8632 1.73396 11.7587 1.62688 11.6364 1.56364C11.5142 1.50039 11.3796 1.48382 11.2498 1.51602C11.12 1.54821 11.0008 1.62772 10.9071 1.74451L6.69233 5.76033C6.56826 5.91627 6.42066 6.03992 6.25808 6.12407C6.09549 6.20823 4.92116 6.25123 4.74518 6.25059H2.45C2.19804 6.25059 1.95641 6.37565 1.77824 6.59826C1.60009 6.82088 1.5 7.12281 1.5 7.43764V14.56C1.5 14.8748 1.60009 15.1768 1.77824 15.3993C1.95641 15.622 2.19804 15.747 2.45 15.747H4.74518C4.92116 15.7464 6.09549 15.7894 6.25808 15.8736C6.42066 15.9577 6.56826 16.0814 6.69233 16.2373L10.9062 20.2543C10.9998 20.3716 11.1192 20.4514 11.2493 20.4839C11.3794 20.5163 11.5142 20.4996 11.6366 20.4363C11.7592 20.3727 11.8638 20.2653 11.9374 20.1275C12.011 19.9897 12.0501 19.8276 12.05 19.6619V2.33567Z" stroke="white" stroke-width="2" stroke-linecap="round" stroke-linejoin="round"/>
</svg>
