<svg width="100%" height="100%" viewBox="0 0 18 18" fill="none" xmlns="http://www.w3.org/2000/svg">
<path d="M15.5996 6.00003C16.2487 6.86551 16.5996 7.91818 16.5996 9.00003C16.5996 10.0819 16.2487 11.1345 15.5996 12M18.9636 15.364C19.7993 14.5283 20.4623 13.5361 20.9146 12.4442C21.3669 11.3523 21.5997 10.1819 21.5997 9.00003C21.5997 7.81812 21.3669 6.64779 20.9146 5.55585C20.4623 4.46391 19.7993 3.47176 18.9636 2.63603M10.5996 1.70203C10.5994 1.56274 10.558 1.42663 10.4805 1.31088C10.403 1.19514 10.293 1.10493 10.1643 1.05166C10.0356 0.998379 9.89397 0.984419 9.75735 1.01154C9.62073 1.03866 9.4952 1.10564 9.39661 1.20403L6.01261 4.58703C5.88201 4.7184 5.72664 4.82256 5.5555 4.89345C5.38436 4.96435 5.20085 5.00057 5.01561 5.00003H2.59961C2.33439 5.00003 2.08004 5.10539 1.8925 5.29292C1.70497 5.48046 1.59961 5.73481 1.59961 6.00003V12C1.59961 12.2652 1.70497 12.5196 1.8925 12.7071C2.08004 12.8947 2.33439 13 2.59961 13H5.01561C5.20085 12.9995 5.38436 13.0357 5.5555 13.1066C5.72664 13.1775 5.88201 13.2817 6.01261 13.413L9.39561 16.797C9.49421 16.8958 9.61992 16.9631 9.7568 16.9904C9.89369 17.0177 10.0356 17.0037 10.1645 16.9503C10.2935 16.8968 10.4037 16.8063 10.4811 16.6902C10.5586 16.5741 10.5998 16.4376 10.5996 16.298V1.70203Z" stroke="white" stroke-width="2" stroke-linecap="round" stroke-linejoin="round"/>
</svg>
